<svg xmlns="http://www.w3.org/2000/svg" viewBox="0 0 100 100">
  <!-- Modern flowing F favicon design -->
  <defs>
    <linearGradient id="fGradient" x1="0%" y1="0%" x2="100%" y2="100%">
      <stop offset="0%" stop-color="#1976d2"/>
      <stop offset="100%" stop-color="#42a5f5"/>
    </linearGradient>
  </defs>
  
  <!-- Flowing F letter with smooth curves -->
  <path d="M 30,20 
           L 75,20 
           Q 77,20 77,22
           L 77,28
           Q 77,30 75,30
           L 45,30
           L 45,42
           L 68,42
           Q 70,42 70,44
           L 70,50
           Q 70,52 68,52
           L 45,52
           L 45,80
           Q 45,82 43,82
           L 32,82
           Q 30,82 30,80
           Z" 
        fill="url(#fGradient)"/>
  
  <!-- Subtle glow effect -->
  <path d="M 30,20 
           L 75,20 
           Q 77,20 77,22
           L 77,28
           Q 77,30 75,30
           L 45,30
           L 45,42
           L 68,42
           Q 70,42 70,44
           L 70,50
           Q 70,52 68,52
           L 45,52
           L 45,80
           Q 45,82 43,82
           L 32,82
           Q 30,82 30,80
           Z" 
        fill="url(#fGradient)" 
        opacity="0.3" 
        transform="translate(2, 2)"
        filter="blur(3px)"/>
</svg>